<svg id="visual" viewBox="0 0 600 900" width="600" height="900" xmlns="http://www.w3.org/2000/svg" xmlns:xlink="http://www.w3.org/1999/xlink" version="1.1"><g stroke-width="1" stroke-linejoin="bevel"><path d="M336 452L234 386.5L226 404Z" fill="#f2a358" stroke="#f2a358"></path><path d="M414 315.5L234 283L234 386.5Z" fill="#f58549" stroke="#f58549"></path><path d="M234 386.5L113 392.5L226 404Z" fill="#f2a65a" stroke="#f2a65a"></path><path d="M336 452L414 315.5L234 386.5Z" fill="#f58549" stroke="#f58549"></path><path d="M150 264L113 392.5L234 386.5Z" fill="#f2a358" stroke="#f2a358"></path><path d="M226 404L277 619.5L336 452Z" fill="#f2a358" stroke="#f2a358"></path><path d="M404 610.5L446 503.5L336 452Z" fill="#f39d54" stroke="#f39d54"></path><path d="M336 452L478 370.5L414 315.5Z" fill="#f5884a" stroke="#f5884a"></path><path d="M147 583.5L277 619.5L226 404Z" fill="#f2a65a" stroke="#f2a65a"></path><path d="M490 454L478 370.5L336 452Z" fill="#f58c4b" stroke="#f58c4b"></path><path d="M167 128.5L150 264L234 283Z" fill="#f2a358" stroke="#f2a358"></path><path d="M234 283L150 264L234 386.5Z" fill="#f5884a" stroke="#f5884a"></path><path d="M446 503.5L490 454L336 452Z" fill="#f2a358" stroke="#f2a358"></path><path d="M0 448L73 440L0 345.5Z" fill="#f49650" stroke="#f49650"></path><path d="M113 392.5L73 440L226 404Z" fill="#f3a056" stroke="#f3a056"></path><path d="M73 440L147 583.5L226 404Z" fill="#f3a056" stroke="#f3a056"></path><path d="M277 619.5L404 610.5L336 452Z" fill="#f58c4b" stroke="#f58c4b"></path><path d="M446 503.5L600 597.5L490 454Z" fill="#f58c4b" stroke="#f58c4b"></path><path d="M509 195L398 203L414 315.5Z" fill="#f58549" stroke="#f58549"></path><path d="M414 315.5L398 203L234 283Z" fill="#f58549" stroke="#f58549"></path><path d="M398 203L294 163.5L234 283Z" fill="#f49650" stroke="#f49650"></path><path d="M277 619.5L335 674L404 610.5Z" fill="#f58c4b" stroke="#f58c4b"></path><path d="M242 725L335 674L277 619.5Z" fill="#f58c4b" stroke="#f58c4b"></path><path d="M0 345.5L73 440L113 392.5Z" fill="#f2a358" stroke="#f2a358"></path><path d="M73 440L0 581.5L147 583.5Z" fill="#f5884a" stroke="#f5884a"></path><path d="M335 674L428 671L404 610.5Z" fill="#f49650" stroke="#f49650"></path><path d="M404 610.5L600 597.5L446 503.5Z" fill="#f49952" stroke="#f49952"></path><path d="M0 255L0 345.5L150 264Z" fill="#f5884a" stroke="#f5884a"></path><path d="M150 264L0 345.5L113 392.5Z" fill="#f58549" stroke="#f58549"></path><path d="M99 699L242 725L147 583.5Z" fill="#f58549" stroke="#f58549"></path><path d="M147 583.5L242 725L277 619.5Z" fill="#f4934e" stroke="#f4934e"></path><path d="M417 844.5L482 777.5L428 671Z" fill="#f49952" stroke="#f49952"></path><path d="M294 163.5L167 128.5L234 283Z" fill="#f2a358" stroke="#f2a358"></path><path d="M490 454L600 402L478 370.5Z" fill="#f2a358" stroke="#f2a358"></path><path d="M478 370.5L509 195L414 315.5Z" fill="#f2a65a" stroke="#f2a65a"></path><path d="M600 597.5L600 402L490 454Z" fill="#f3a056" stroke="#f3a056"></path><path d="M398 203L354 101.5L294 163.5Z" fill="#f3a056" stroke="#f3a056"></path><path d="M294 163.5L239 0L167 128.5Z" fill="#f58549" stroke="#f58549"></path><path d="M600 328.5L509 195L478 370.5Z" fill="#f49952" stroke="#f49952"></path><path d="M469 88.5L354 101.5L398 203Z" fill="#f4934e" stroke="#f4934e"></path><path d="M0 448L0 581.5L73 440Z" fill="#f49650" stroke="#f49650"></path><path d="M600 402L600 328.5L478 370.5Z" fill="#f58549" stroke="#f58549"></path><path d="M167 128.5L0 255L150 264Z" fill="#f2a358" stroke="#f2a358"></path><path d="M0 581.5L99 699L147 583.5Z" fill="#f49952" stroke="#f49952"></path><path d="M428 671L600 597.5L404 610.5Z" fill="#f39d54" stroke="#f39d54"></path><path d="M428 671L600 626L600 597.5Z" fill="#f39d54" stroke="#f39d54"></path><path d="M482 777.5L600 626L428 671Z" fill="#f49650" stroke="#f49650"></path><path d="M600 136.5L469 88.5L509 195Z" fill="#f5884a" stroke="#f5884a"></path><path d="M509 195L469 88.5L398 203Z" fill="#f39d54" stroke="#f39d54"></path><path d="M0 581.5L0 673L99 699Z" fill="#f49650" stroke="#f49650"></path><path d="M600 328.5L600 172L509 195Z" fill="#f3a056" stroke="#f3a056"></path><path d="M260 829.5L335 674L242 725Z" fill="#f49650" stroke="#f49650"></path><path d="M417 844.5L428 671L335 674Z" fill="#f2a65a" stroke="#f2a65a"></path><path d="M135 807.5L242 725L99 699Z" fill="#f2a358" stroke="#f2a358"></path><path d="M135 807.5L260 829.5L242 725Z" fill="#f3a056" stroke="#f3a056"></path><path d="M0 737.5L135 807.5L99 699Z" fill="#f2a65a" stroke="#f2a65a"></path><path d="M354 101.5L239 0L294 163.5Z" fill="#f49952" stroke="#f49952"></path><path d="M167 128.5L0 84.5L0 255Z" fill="#f3a056" stroke="#f3a056"></path><path d="M414 0L239 0L354 101.5Z" fill="#f39d54" stroke="#f39d54"></path><path d="M600 172L600 136.5L509 195Z" fill="#f5884a" stroke="#f5884a"></path><path d="M469 88.5L414 0L354 101.5Z" fill="#f49650" stroke="#f49650"></path><path d="M0 673L0 737.5L99 699Z" fill="#f4934e" stroke="#f4934e"></path><path d="M239 0L159 0L167 128.5Z" fill="#f2a358" stroke="#f2a358"></path><path d="M475 0L414 0L469 88.5Z" fill="#f4934e" stroke="#f4934e"></path><path d="M159 0L0 84.5L167 128.5Z" fill="#f2a65a" stroke="#f2a65a"></path><path d="M260 829.5L417 844.5L335 674Z" fill="#f58c4b" stroke="#f58c4b"></path><path d="M539 900L600 756.5L482 777.5Z" fill="#f58549" stroke="#f58549"></path><path d="M482 777.5L600 756.5L600 626Z" fill="#f4934e" stroke="#f4934e"></path><path d="M600 0L475 0L469 88.5Z" fill="#f58c4b" stroke="#f58c4b"></path><path d="M135 807.5L249 900L260 829.5Z" fill="#f49952" stroke="#f49952"></path><path d="M260 829.5L397 900L417 844.5Z" fill="#f2a358" stroke="#f2a358"></path><path d="M97 900L249 900L135 807.5Z" fill="#f49952" stroke="#f49952"></path><path d="M249 900L397 900L260 829.5Z" fill="#f49650" stroke="#f49650"></path><path d="M417 844.5L539 900L482 777.5Z" fill="#f4934e" stroke="#f4934e"></path><path d="M159 0L0 0L0 84.5Z" fill="#f49952" stroke="#f49952"></path><path d="M0 900L97 900L135 807.5Z" fill="#f48f4d" stroke="#f48f4d"></path><path d="M600 136.5L600 0L469 88.5Z" fill="#f2a358" stroke="#f2a358"></path><path d="M397 900L539 900L417 844.5Z" fill="#f2a65a" stroke="#f2a65a"></path><path d="M0 737.5L0 900L135 807.5Z" fill="#f58c4b" stroke="#f58c4b"></path><path d="M539 900L600 900L600 756.5Z" fill="#f2a358" stroke="#f2a358"></path></g></svg>