<svg id="github" xmlns="http://www.w3.org/2000/svg" width="52.57" height="67.57" viewBox="0 0 52.57 67.57">
                <path id="icons8-github" d="M25.375,2.213a26.246,26.246,0,0,0-6.585,50.57,1.21,1.21,0,0,0,1.58-1.317V47.252a10.868,10.868,0,0,1-2.37.263,5.682,5.682,0,0,1-5.531-5,5.465,5.465,0,0,0-1.58-2.634c-.79-.263-1.054-.263-1.054-.527,0-.527.79-.527,1.054-.527,1.58,0,2.9,1.844,3.424,2.634,1.317,2.107,2.9,2.634,3.687,2.634a5.259,5.259,0,0,0,2.37-.527A6.675,6.675,0,0,1,23,38.823c-6.058-1.317-10.535-4.741-10.535-10.535a12.415,12.415,0,0,1,3.161-7.9A9.769,9.769,0,0,1,15.1,16.7a9.027,9.027,0,0,1,.79-4.214,11.853,11.853,0,0,1,7.375,3.424,14.255,14.255,0,0,1,5-.79,16.982,16.982,0,0,1,5.268.79,11.356,11.356,0,0,1,7.375-3.424,13.091,13.091,0,0,1,.527,4.214,8.757,8.757,0,0,1-.527,3.687,11.866,11.866,0,0,1,3.161,7.9c0,5.794-4.478,9.218-10.535,10.535a8.121,8.121,0,0,1,2.634,6.058v6.848a1.435,1.435,0,0,0,1.844,1.317A26.442,26.442,0,0,0,25.375,2.213Z" transform="translate(-2.041 -2.031)" fill="#fff"/>
                <text id="GITHUB" transform="translate(26.567 64.57)" fill="#fff" font-size="12" font-family="AbadiMT-CondensedExtraBold, Abadi MT Condensed Extra Bold" font-weight="800"><tspan x="-16.937" y="0">GITHUB</tspan></text>
              </svg>