<svg id="spotify" xmlns="http://www.w3.org/2000/svg" width="52.57" height="68.322" viewBox="0 0 52.57 68.322">
            <path id="icons8-spotify" d="M29.285,3A26.285,26.285,0,1,0,55.57,29.285,26.362,26.362,0,0,0,29.285,3ZM39.648,42.428c-.482,0-.723-.241-1.2-.482a25.477,25.477,0,0,0-13.011-3.373,42.228,42.228,0,0,0-7.951.964,10.435,10.435,0,0,0-1.2.241,1.647,1.647,0,0,1-1.687-1.687c0-.964.482-1.687,1.446-1.687a42.243,42.243,0,0,1,9.64-1.2,30.593,30.593,0,0,1,14.939,3.855c.482.482.964.723.964,1.687C41.091,41.946,40.369,42.428,39.648,42.428ZM42.3,35.683A3.425,3.425,0,0,1,40.85,35.2c-4.1-2.65-9.881-4.1-16.143-4.1a38.2,38.2,0,0,0-8.192.964,2.172,2.172,0,0,1-1.2.241,1.9,1.9,0,0,1-1.93-1.93c0-1.2.482-1.687,1.687-2.171a37.285,37.285,0,0,1,9.881-1.446,35.813,35.813,0,0,1,18.314,4.819,2.457,2.457,0,0,1,1.2,1.93C44.224,34.717,43.5,35.683,42.3,35.683Zm3.132-7.712c-.482,0-.723-.241-1.446-.482A40.542,40.542,0,0,0,25.43,23.152a46.562,46.562,0,0,0-10.122,1.2c-.482,0-.723.241-1.446.241-1.446.243-2.409-.964-2.409-2.407a2.207,2.207,0,0,1,1.687-2.409,50.439,50.439,0,0,1,12.29-1.448,47.32,47.32,0,0,1,21.205,4.819,2.83,2.83,0,0,1,1.446,2.409A2.629,2.629,0,0,1,45.428,27.971Z" transform="translate(-3 -3)" fill="#fff"/>
            <text id="SPOTIFY" transform="translate(27.003 65.322)" fill="#fff" font-size="12" font-family="AbadiMT-CondensedExtraBold, Abadi MT Condensed Extra Bold" font-weight="800"><tspan x="-18.981" y="0">SPOTIFY</tspan></text>
            </svg>